<?xml version="1.0" encoding="UTF-8" ?>
<!DOCTYPE svg PUBLIC "-//W3C//DTD SVG 1.1//EN" "http://www.w3.org/Graphics/SVG/1.1/DTD/svg11.dtd">
<svg width="500pt" height="500pt" viewBox="0 0 500 500" version="1.1" xmlns="http://www.w3.org/2000/svg">
<g id="#ffffffff">
<path fill="#ffffff" opacity="1.00" d=" M 126.01 169.95 C 127.83 167.62 129.51 163.93 133.05 164.43 C 181.70 164.22 230.36 164.36 279.01 164.35 C 285.71 164.89 292.43 163.87 299.12 164.69 C 322.30 164.07 345.52 164.40 368.71 164.29 C 372.27 168.76 375.43 173.52 378.65 178.24 C 387.59 188.79 395.32 200.28 403.99 211.04 C 407.68 215.63 411.26 220.30 414.92 224.92 C 416.95 227.44 418.63 230.33 421.27 232.30 C 422.74 226.10 422.12 219.79 421.30 213.57 C 420.29 210.95 419.33 208.29 419.45 205.44 C 428.30 205.88 437.05 204.03 445.88 204.78 C 448.27 205.62 447.79 208.53 447.50 210.50 C 446.57 212.05 444.41 213.05 444.66 215.10 C 444.36 230.71 444.77 246.32 444.64 261.93 C 444.25 265.33 447.46 267.34 449.21 269.79 C 460.44 284.30 470.66 299.59 482.49 313.64 C 487.87 320.05 492.85 326.78 497.88 333.47 C 486.61 334.02 475.29 334.40 463.99 334.13 C 458.09 333.58 452.16 333.89 446.25 333.80 C 439.40 325.87 433.87 316.92 426.91 309.09 C 422.00 303.79 418.85 297.19 414.28 291.63 C 405.75 280.21 396.86 269.08 388.02 257.90 C 378.44 246.05 370.77 232.75 360.49 221.46 C 354.17 213.77 348.42 205.64 342.01 198.01 C 338.94 201.69 335.97 205.45 333.32 209.44 C 327.47 218.07 320.50 225.85 314.41 234.30 C 301.90 250.19 289.89 266.47 277.54 282.48 C 270.41 292.32 263.03 301.98 255.41 311.44 C 250.38 317.23 246.17 323.64 241.83 329.94 C 240.34 331.83 238.75 334.28 236.03 334.19 C 181.02 334.26 126.01 334.21 71.00 334.21 C 62.67 334.08 54.32 334.48 46.00 333.84 C 30.96 333.72 15.92 333.93 0.88 333.74 C 9.74 321.33 20.33 310.23 28.68 297.43 C 37.65 285.25 46.90 273.26 56.54 261.59 C 65.45 250.42 73.14 238.34 82.05 227.17 C 92.83 214.10 103.17 200.66 113.05 186.89 C 116.62 180.68 122.17 175.98 126.01 169.95 Z" />
<path fill="#ffffff" opacity="1.00" d=" M 323.31 266.46 C 328.97 266.67 334.64 266.40 340.31 266.51 C 340.27 272.20 340.21 277.90 340.29 283.60 C 334.62 283.83 328.94 283.65 323.27 283.73 C 323.24 277.97 323.28 272.22 323.31 266.46 Z" />
<path fill="#ffffff" opacity="1.00" d=" M 347.34 266.44 C 353.11 266.44 358.88 266.44 364.66 266.44 C 364.74 272.19 364.68 277.95 364.69 283.70 C 358.90 283.70 353.11 283.74 347.32 283.79 C 347.34 278.01 347.29 272.22 347.34 266.44 Z" />
<path fill="#ffffff" opacity="1.00" d=" M 323.36 290.41 C 329.01 290.50 334.67 290.37 340.32 290.51 C 340.21 296.47 340.21 302.44 340.26 308.40 C 334.61 308.55 328.96 308.40 323.31 308.52 C 323.20 302.48 323.24 296.44 323.36 290.41 Z" />
<path fill="#ffffff" opacity="1.00" d=" M 347.34 290.38 C 353.10 290.49 358.86 290.45 364.63 290.43 C 364.72 296.45 364.73 302.48 364.65 308.51 C 358.90 308.45 353.15 308.45 347.39 308.50 C 347.29 302.46 347.30 296.42 347.34 290.38 Z" />
</g>
</svg>
