<?xml version="1.0" encoding="UTF-8" ?>
<!DOCTYPE svg PUBLIC "-//W3C//DTD SVG 1.1//EN" "http://www.w3.org/Graphics/SVG/1.1/DTD/svg11.dtd">
<svg width="782pt" height="782pt" viewBox="0 0 782 782" version="1.1" xmlns="http://www.w3.org/2000/svg">
<g id="#000000ff">
<path fill="#000000" opacity="1.00" d=" M 212.24 182.15 C 214.06 179.85 216.05 177.12 219.22 176.80 C 226.79 176.34 234.39 176.74 241.95 177.23 C 251.31 177.19 260.70 177.51 270.05 176.84 C 299.71 176.67 329.36 176.87 359.01 176.76 C 405.66 176.95 452.30 176.56 498.94 176.69 C 505.33 176.74 511.73 176.25 518.11 176.70 C 519.94 176.79 521.28 178.24 522.42 179.53 C 544.18 207.70 565.23 236.41 587.54 264.15 C 588.27 262.53 588.80 260.79 588.71 259.00 C 588.61 252.07 588.96 245.13 588.42 238.22 C 584.73 236.05 585.47 231.77 586.52 228.30 C 597.90 228.28 609.33 227.01 620.68 228.39 C 621.07 230.98 621.03 233.61 620.66 236.20 C 619.68 236.72 618.71 237.24 617.75 237.76 C 617.19 258.82 617.77 279.88 617.67 300.95 C 617.30 304.83 620.53 307.43 622.64 310.23 C 634.68 325.59 646.33 341.26 658.53 356.50 C 664.90 364.43 670.91 372.63 677.07 380.71 C 680.19 384.85 683.69 388.75 686.10 393.37 C 665.39 393.79 644.67 393.54 623.95 393.73 C 621.86 393.56 619.18 394.24 617.92 392.06 C 604.91 375.06 592.12 357.88 579.29 340.74 C 556.03 310.91 533.58 280.47 510.75 250.32 C 502.85 240.31 496.20 229.34 487.83 219.71 C 483.93 221.37 481.83 225.21 479.35 228.40 C 468.33 243.67 456.61 258.42 445.36 273.51 C 416.10 311.90 386.96 350.37 357.90 388.91 C 356.19 391.15 354.23 393.93 350.99 393.38 C 335.32 393.47 319.64 393.21 303.97 393.25 C 290.66 392.53 277.30 392.63 263.99 393.15 C 257.99 392.84 251.98 392.74 245.97 392.81 C 214.64 392.74 183.30 392.76 151.97 392.80 C 146.65 392.97 141.33 393.35 136.01 393.20 C 107.76 393.25 79.51 393.61 51.27 393.11 C 53.02 389.40 55.63 386.22 58.15 383.02 C 68.91 368.50 79.89 354.14 91.10 339.96 C 123.53 298.98 154.70 257.02 186.80 215.78 C 195.06 204.40 203.93 193.48 212.24 182.15 Z" />
<path fill="#000000" opacity="1.00" d=" M 461.83 306.10 C 469.41 306.41 476.97 305.62 484.56 305.84 C 485.53 313.67 484.37 321.59 484.73 329.47 C 477.26 329.53 469.78 329.55 462.31 329.40 C 461.33 321.67 461.93 313.86 461.83 306.10 Z" />
<path fill="#000000" opacity="1.00" d=" M 492.50 306.33 C 500.20 305.38 507.98 305.82 515.70 306.36 C 515.88 314.10 515.85 321.84 515.78 329.57 C 508.02 329.56 500.26 329.62 492.50 329.47 C 492.63 321.75 492.52 314.04 492.50 306.33 Z" />
<path fill="#000000" opacity="1.00" d=" M 462.35 336.52 C 469.88 336.29 477.42 336.51 484.96 336.51 C 485.75 344.41 484.94 352.33 484.53 360.23 C 477.32 360.12 470.08 360.56 462.89 360.06 C 462.66 359.84 462.22 359.40 462.00 359.18 C 461.67 351.64 461.39 344.02 462.35 336.52 Z" />
<path fill="#000000" opacity="1.00" d=" M 492.31 336.41 C 500.13 336.30 507.95 336.43 515.77 336.46 C 516.65 344.34 516.63 352.38 515.64 360.25 C 507.94 360.08 500.19 360.79 492.53 359.72 C 492.57 351.95 492.22 344.18 492.31 336.41 Z" />
<path fill="#000000" opacity="1.00" d=" M 31.08 412.49 C 38.92 412.47 46.77 412.45 54.61 412.58 C 61.85 412.72 68.97 415.81 74.03 420.99 C 84.92 432.15 84.31 452.35 72.70 462.78 C 67.62 467.39 60.81 469.82 53.99 469.93 C 46.34 470.06 38.69 469.94 31.04 469.95 C 31.04 450.80 30.97 431.64 31.08 412.49 M 34.77 416.01 C 34.80 432.80 34.74 449.59 34.80 466.38 C 42.21 466.33 49.65 466.73 57.04 466.18 C 66.95 465.22 75.37 457.20 77.38 447.55 C 78.58 441.10 78.14 434.07 74.84 428.26 C 71.06 421.03 63.20 416.17 55.04 416.07 C 48.28 415.84 41.52 416.01 34.77 416.01 Z" />
<path fill="#000000" opacity="1.00" d=" M 100.04 412.04 C 108.05 412.06 116.06 411.96 124.06 412.06 C 129.54 412.09 135.33 413.71 139.08 417.91 C 144.55 423.73 144.03 433.81 138.40 439.36 C 135.60 442.35 131.60 443.63 127.81 444.83 C 132.93 453.04 138.22 461.15 143.28 469.40 C 141.97 469.37 140.65 469.35 139.34 469.34 C 134.23 461.21 129.10 453.09 123.99 444.97 C 117.22 444.96 110.45 444.96 103.68 444.98 C 103.61 453.13 103.79 461.28 103.65 469.43 C 102.74 469.41 100.93 469.39 100.03 469.37 C 100.02 450.26 100.02 431.15 100.04 412.04 M 103.73 415.63 C 103.66 424.35 103.64 433.08 103.76 441.81 C 110.52 441.81 117.29 441.84 124.05 441.83 C 128.22 441.88 132.53 440.52 135.53 437.55 C 140.35 432.92 140.54 424.08 135.42 419.60 C 132.34 416.77 128.10 415.63 123.99 415.57 C 117.24 415.49 110.48 415.52 103.73 415.63 Z" />
<path fill="#000000" opacity="1.00" d=" M 250.05 412.55 C 263.65 412.24 277.25 412.44 290.85 412.49 C 290.91 413.64 290.97 414.79 291.04 415.94 C 278.62 416.03 266.19 415.90 253.77 416.01 C 253.72 423.92 253.73 431.84 253.80 439.76 C 262.18 439.83 270.56 439.73 278.94 439.79 C 278.95 440.58 278.98 442.17 278.99 442.96 C 270.59 442.98 262.19 442.97 253.78 442.98 C 253.70 451.81 253.87 460.64 253.66 469.47 C 252.76 469.43 250.95 469.34 250.04 469.30 C 250.02 450.38 250.01 431.46 250.05 412.55 Z" />
<path fill="#000000" opacity="1.00" d=" M 319.46 428.37 C 322.34 422.63 324.70 416.63 327.93 411.08 C 337.57 430.62 346.63 450.47 355.64 470.31 C 354.25 470.13 352.88 469.88 351.54 469.55 C 349.41 465.85 348.01 461.79 346.12 457.97 C 333.89 458.04 321.66 457.84 309.44 458.09 C 307.74 462.10 306.02 466.10 304.13 470.03 C 303.14 470.00 301.18 469.95 300.20 469.92 C 306.51 456.02 313.08 442.23 319.46 428.37 M 311.20 454.78 C 322.31 454.91 333.42 454.86 344.53 454.79 C 339.15 442.66 333.68 430.56 327.84 418.66 C 322.07 430.59 316.69 442.71 311.20 454.78 Z" />
<path fill="#000000" opacity="1.00" d=" M 378.90 418.88 C 389.25 410.68 404.15 410.33 415.83 415.80 C 415.71 416.78 415.47 418.73 415.35 419.70 C 409.12 416.51 402.06 414.68 395.05 415.81 C 384.95 416.86 375.64 424.16 372.83 434.02 C 370.63 442.06 371.62 451.43 377.12 457.98 C 383.50 465.71 394.32 468.50 403.98 467.14 C 409.41 466.55 414.36 464.09 418.98 461.32 C 418.98 462.24 418.97 464.08 418.96 465.01 C 405.84 473.92 385.96 473.01 375.06 460.95 C 364.35 449.17 366.22 428.53 378.90 418.88 Z" />
<path fill="#000000" opacity="1.00" d=" M 534.17 412.50 C 549.37 412.55 564.56 412.31 579.76 412.39 C 579.75 413.57 579.74 414.76 579.74 415.94 C 572.76 415.99 565.77 415.95 558.79 415.99 C 558.69 433.96 558.78 451.94 558.77 469.92 C 557.52 469.94 556.28 469.96 555.04 469.99 C 554.99 451.99 555.06 433.98 555.02 415.97 C 548.03 415.93 541.04 416.00 534.06 415.91 C 534.09 414.77 534.13 413.63 534.17 412.50 Z" />
<path fill="#000000" opacity="1.00" d=" M 658.30 419.40 C 661.19 415.21 666.10 412.84 671.00 411.95 C 679.01 410.64 687.28 412.19 694.60 415.57 C 694.60 416.78 694.61 418.00 694.63 419.22 C 686.98 415.89 678.45 413.87 670.14 415.66 C 666.74 416.56 663.49 418.48 661.50 421.43 C 658.86 425.41 659.66 431.54 663.84 434.18 C 672.89 440.05 685.01 438.61 693.59 445.49 C 699.43 450.19 699.02 459.87 693.89 464.95 C 689.29 469.67 682.33 471.08 675.97 470.89 C 668.29 470.40 660.66 468.54 653.72 465.19 C 653.95 464.35 654.40 462.68 654.62 461.85 C 662.69 465.83 671.76 468.37 680.82 467.41 C 686.09 466.76 691.69 463.90 693.54 458.61 C 694.64 454.75 693.92 449.99 690.37 447.63 C 681.53 441.66 669.69 443.19 660.95 436.96 C 655.41 433.16 654.57 424.73 658.30 419.40 Z" />
<path fill="#000000" opacity="1.00" d=" M 153.96 412.69 C 155.02 412.66 157.12 412.59 158.17 412.56 C 165.48 422.53 172.54 432.69 179.92 442.62 C 187.22 432.63 194.42 422.57 201.73 412.60 C 202.74 412.63 204.77 412.71 205.78 412.74 C 198.98 422.61 191.91 432.30 184.88 442.02 C 183.44 444.13 181.39 446.21 181.64 448.99 C 181.54 455.93 181.72 462.89 181.63 469.84 C 180.44 469.88 179.25 469.94 178.07 469.99 C 177.78 462.09 178.50 454.12 177.72 446.26 C 170.24 434.79 161.71 424.00 153.96 412.69 Z" />
<path fill="#000000" opacity="1.00" d=" M 434.07 412.79 C 434.97 412.75 436.78 412.68 437.69 412.64 C 437.73 431.73 437.76 450.82 437.70 469.90 C 436.49 469.91 435.28 469.92 434.08 469.94 C 434.00 450.89 434.03 431.84 434.07 412.79 Z" />
<path fill="#000000" opacity="1.00" d=" M 458.09 412.72 C 459.29 412.68 460.50 412.65 461.71 412.63 C 461.78 430.56 461.66 448.49 461.79 466.41 C 474.20 466.73 486.61 466.30 499.02 466.59 C 499.02 467.43 499.01 469.11 499.01 469.95 C 485.37 469.99 471.72 469.99 458.07 469.93 C 458.02 450.86 458.01 431.79 458.09 412.72 Z" />
<path fill="#000000" opacity="1.00" d=" M 515.05 412.76 C 515.95 412.73 517.76 412.68 518.66 412.65 C 518.79 431.74 518.70 450.83 518.75 469.92 C 517.51 469.94 516.27 469.96 515.05 469.99 C 515.01 450.91 515.02 431.83 515.05 412.76 Z" />
<path fill="#000000" opacity="1.00" d=" M 590.05 412.74 C 591.07 412.69 593.11 412.59 594.14 412.54 C 601.46 422.51 608.53 432.67 615.93 442.59 C 623.25 432.60 630.42 422.50 637.75 412.52 C 638.81 412.54 640.91 412.59 641.97 412.62 C 636.00 421.37 629.62 429.83 623.50 438.48 C 621.63 441.25 619.23 443.75 617.93 446.86 C 617.37 454.52 617.94 462.23 617.67 469.91 C 616.46 469.93 615.25 469.95 614.06 469.98 C 613.92 462.63 614.20 455.28 613.97 447.93 C 614.03 446.35 613.08 445.05 612.24 443.81 C 604.82 433.47 597.28 423.21 590.05 412.74 Z" />
<path fill="#000000" opacity="1.00" d=" M 90.01 499.94 C 103.62 499.25 117.31 499.78 130.94 499.63 C 300.31 499.61 469.67 499.79 639.04 499.64 C 641.48 499.03 644.49 501.46 642.91 503.96 C 642.41 505.62 640.52 505.55 639.13 505.66 C 457.42 505.62 275.72 505.64 94.01 505.63 C 92.63 505.56 91.20 505.62 89.87 505.18 C 88.04 503.92 88.24 501.16 90.01 499.94 Z" />
<path fill="#000000" opacity="1.00" d=" M 52.02 536.97 C 53.37 536.99 54.72 537.01 56.07 537.04 C 56.07 544.00 56.07 550.97 56.07 557.94 C 54.72 557.96 53.38 557.98 52.04 558.02 C 52.00 551.00 52.02 543.99 52.02 536.97 Z" />
<path fill="#000000" opacity="1.00" d=" M 73.02 536.97 C 75.15 536.99 77.28 537.02 79.41 537.08 C 80.73 542.39 81.99 547.73 83.48 553.01 C 84.93 547.72 86.22 542.38 87.54 537.06 C 89.69 537.02 91.85 537.00 94.01 536.99 C 94.01 544.00 94.05 551.01 93.95 558.03 C 92.61 557.99 91.27 557.96 89.94 557.94 C 89.90 552.31 90.04 546.67 89.80 541.04 C 88.03 546.62 86.81 552.35 85.21 557.97 C 84.35 557.97 82.64 557.97 81.79 557.97 C 80.19 552.45 79.03 546.80 77.20 541.35 C 76.96 546.88 77.09 552.42 77.07 557.95 C 75.72 557.96 74.38 557.99 73.03 558.02 C 73.02 551.00 72.95 543.98 73.02 536.97 Z" />
<path fill="#000000" opacity="1.00" d=" M 112.02 536.99 C 115.87 537.07 119.84 536.56 123.61 537.59 C 127.48 539.05 127.80 544.58 125.70 547.62 C 123.48 550.65 119.29 549.80 116.05 550.11 C 116.07 552.72 116.07 555.33 116.07 557.94 C 114.73 557.96 113.38 557.98 112.03 558.02 C 112.01 551.01 112.02 544.00 112.02 536.99 M 116.10 540.33 C 116.08 542.44 116.08 544.56 116.09 546.69 C 118.70 546.54 123.61 547.16 122.90 543.04 C 122.69 539.53 118.47 540.81 116.10 540.33 Z" />
<path fill="#000000" opacity="1.00" d=" M 144.01 536.99 C 148.48 536.98 152.94 536.98 157.41 536.98 C 157.42 537.85 157.44 539.57 157.45 540.44 C 154.32 540.47 151.20 540.48 148.07 540.49 C 148.07 542.31 148.07 544.15 148.07 545.99 C 150.84 545.99 153.60 546.00 156.37 546.02 C 156.39 546.88 156.41 548.59 156.42 549.44 C 153.65 549.45 150.88 549.46 148.11 549.46 C 148.08 551.14 148.04 552.82 148.01 554.51 C 151.14 554.54 154.27 554.56 157.41 554.60 C 157.40 555.44 157.39 557.13 157.39 557.97 C 152.94 558.00 148.49 558.02 144.04 557.99 C 143.96 550.98 143.96 543.98 144.01 536.99 Z" />
<path fill="#000000" opacity="1.00" d=" M 175.01 536.98 C 179.21 537.22 183.83 536.19 187.73 538.15 C 191.45 540.93 190.03 546.55 186.94 549.27 C 188.05 552.17 189.22 555.05 190.35 557.95 C 188.95 557.95 187.56 557.96 186.17 557.97 C 185.20 555.35 184.48 552.60 183.00 550.22 C 181.70 550.02 180.39 549.87 179.09 549.78 C 179.07 552.50 179.07 555.23 179.07 557.97 C 177.72 557.96 176.37 557.97 175.03 557.99 C 174.99 550.98 174.96 543.98 175.01 536.98 M 179.10 540.38 C 179.08 542.47 179.08 544.57 179.09 546.68 C 181.78 546.50 186.59 547.21 185.89 543.04 C 185.68 539.52 181.48 540.84 179.10 540.38 Z" />
<path fill="#000000" opacity="1.00" d=" M 208.02 536.96 C 210.15 536.99 212.28 537.03 214.41 537.10 C 215.79 542.45 217.05 547.82 218.53 553.15 C 219.84 547.78 221.22 542.43 222.53 537.07 C 224.67 537.02 226.82 536.99 228.97 536.97 C 229.04 543.98 229.04 551.01 228.97 558.03 C 227.61 557.99 226.26 557.97 224.92 557.96 C 224.89 552.50 225.16 547.03 224.63 541.59 C 222.98 547.00 221.78 552.53 220.22 557.96 C 219.36 557.97 217.64 558.00 216.78 558.01 C 215.24 552.48 213.98 546.87 212.21 541.41 C 211.96 546.92 212.10 552.44 212.07 557.96 C 210.72 557.97 209.38 557.99 208.04 558.03 C 207.96 551.00 207.96 543.98 208.02 536.96 Z" />
<path fill="#000000" opacity="1.00" d=" M 247.01 536.98 C 251.48 536.98 255.95 536.98 260.43 536.98 C 260.43 537.85 260.45 539.59 260.45 540.47 C 257.33 540.50 254.20 540.50 251.08 540.52 C 251.07 542.33 251.06 544.15 251.06 545.98 C 253.85 545.98 256.64 545.99 259.43 546.02 C 259.44 546.88 259.45 548.60 259.45 549.46 C 256.66 549.50 253.86 549.52 251.07 549.54 C 251.06 551.21 251.07 552.88 251.08 554.56 C 254.17 554.56 257.26 554.56 260.36 554.59 C 260.35 555.44 260.33 557.13 260.32 557.97 C 255.89 557.98 251.46 557.99 247.03 558.02 C 247.02 551.01 246.98 543.99 247.01 536.98 Z" />
<path fill="#000000" opacity="1.00" d=" M 283.40 537.08 C 284.84 537.05 286.28 537.04 287.73 537.03 C 290.10 544.00 292.55 550.95 294.90 557.93 C 293.59 557.94 292.28 557.96 290.98 557.99 C 290.50 556.67 290.03 555.34 289.56 554.04 C 286.92 554.01 284.29 553.98 281.65 553.97 C 281.13 555.29 280.61 556.62 280.09 557.95 C 279.16 557.95 277.31 557.96 276.39 557.96 C 278.55 550.94 281.14 544.07 283.40 537.08 M 282.76 550.54 C 284.62 550.55 286.47 550.57 288.33 550.59 C 287.54 547.77 286.67 544.99 285.68 542.24 C 284.51 544.93 283.59 547.72 282.76 550.54 Z" />
<path fill="#000000" opacity="1.00" d=" M 311.02 536.98 C 315.26 537.19 319.86 536.27 323.84 538.11 C 327.09 540.23 326.09 544.77 323.87 547.29 C 327.08 549.07 328.11 553.62 325.26 556.22 C 321.10 558.99 315.74 557.74 311.04 558.02 C 310.95 551.00 311.02 543.99 311.02 536.98 M 315.11 540.40 C 315.08 542.31 315.07 544.23 315.07 546.16 C 317.40 545.73 322.25 546.89 321.89 543.13 C 321.90 539.54 317.43 540.84 315.11 540.40 M 315.09 549.45 C 315.07 551.18 315.08 552.93 315.09 554.67 C 317.81 554.38 323.61 555.61 322.87 551.16 C 321.54 548.43 317.56 549.99 315.09 549.45 Z" />
<path fill="#000000" opacity="1.00" d=" M 344.03 536.96 C 345.37 536.98 346.72 537.01 348.07 537.03 C 348.08 544.00 348.07 550.96 348.07 557.93 C 346.73 557.95 345.40 557.99 344.06 558.03 C 343.95 551.01 343.96 543.98 344.03 536.96 Z" />
<path fill="#000000" opacity="1.00" d=" M 365.02 536.96 C 366.37 536.99 367.72 537.01 369.07 537.04 C 369.07 542.86 369.07 548.69 369.08 554.52 C 371.84 554.55 374.60 554.58 377.36 554.63 C 377.36 555.47 377.36 557.13 377.36 557.97 C 373.23 558.01 369.11 558.01 364.98 557.96 C 365.06 550.96 364.93 543.96 365.02 536.96 Z" />
<path fill="#000000" opacity="1.00" d=" M 394.02 536.97 C 395.37 536.98 396.72 537.00 398.07 537.02 C 398.08 544.00 398.08 550.97 398.08 557.95 C 396.72 557.95 395.37 557.95 394.02 557.96 C 394.01 550.96 394.02 543.96 394.02 536.97 Z" />
<path fill="#000000" opacity="1.00" d=" M 414.93 537.02 C 420.10 536.98 425.28 536.92 430.45 537.10 C 428.58 543.81 423.01 548.58 419.62 554.52 C 423.06 554.59 426.50 554.59 429.94 554.63 C 429.96 555.47 430.01 557.14 430.03 557.97 C 424.86 557.98 419.70 558.05 414.54 557.88 C 416.54 551.34 421.64 546.41 424.96 540.56 C 421.68 540.49 418.41 540.49 415.15 540.46 C 415.07 539.31 414.99 538.16 414.93 537.02 Z" />
<path fill="#000000" opacity="1.00" d=" M 452.42 537.08 C 453.86 537.06 455.31 537.05 456.76 537.05 C 459.10 544.04 461.60 550.98 463.83 558.01 C 462.87 557.99 460.95 557.96 459.99 557.94 C 459.52 556.63 459.05 555.31 458.59 554.01 C 456.01 553.97 453.43 553.85 450.88 554.11 C 450.11 555.33 449.56 556.67 448.94 557.97 C 448.06 557.95 446.30 557.91 445.42 557.89 C 447.60 550.90 450.12 544.02 452.42 537.08 M 454.60 541.95 C 453.58 544.80 452.65 547.68 451.77 550.58 C 453.66 550.57 455.56 550.55 457.46 550.53 C 456.54 547.65 455.60 544.79 454.60 541.95 Z" />
<path fill="#000000" opacity="1.00" d=" M 483.54 556.49 C 476.37 552.05 478.00 538.44 486.88 537.22 C 491.72 536.02 496.52 538.90 497.96 543.60 C 496.64 543.61 495.33 543.64 494.03 543.68 C 492.63 542.28 491.25 540.28 489.00 540.54 C 480.98 540.06 481.02 555.04 489.04 554.53 C 491.41 554.76 492.67 552.51 494.06 551.02 C 495.01 551.06 496.90 551.13 497.84 551.16 C 496.59 557.51 488.63 559.75 483.54 556.49 Z" />
<path fill="#000000" opacity="1.00" d=" M 515.03 536.97 C 516.37 536.99 517.72 537.01 519.08 537.03 C 519.08 544.01 519.07 550.98 519.07 557.96 C 517.70 557.95 516.34 557.95 514.98 557.96 C 515.04 550.96 514.93 543.96 515.03 536.97 Z" />
<path fill="#000000" opacity="1.00" d=" M 541.39 537.60 C 544.14 536.78 547.26 536.84 549.86 538.12 C 556.72 541.71 556.66 553.41 549.73 556.88 C 545.53 558.89 539.75 558.07 536.99 554.09 C 533.37 548.82 534.81 539.75 541.39 537.60 M 542.25 541.15 C 537.04 544.01 538.21 554.67 544.94 554.55 C 550.51 554.82 552.14 547.86 550.24 543.71 C 549.00 540.70 545.00 539.75 542.25 541.15 Z" />
<path fill="#000000" opacity="1.00" d=" M 572.04 536.78 C 573.52 536.95 575.05 537.00 576.52 537.35 C 579.64 542.01 582.00 547.14 584.91 551.93 C 584.95 546.96 584.95 541.99 584.93 537.03 C 586.28 537.01 587.63 536.99 588.99 536.98 C 588.98 544.00 589.00 551.03 588.96 558.05 C 587.44 557.99 585.92 557.93 584.41 557.87 C 581.66 552.96 578.97 548.01 576.13 543.15 C 576.04 548.09 576.07 553.03 576.07 557.97 C 574.72 557.98 573.38 557.99 572.05 558.02 C 571.96 550.94 572.00 543.86 572.04 536.78 Z" />
<path fill="#000000" opacity="1.00" d=" M 607.01 536.99 C 611.47 536.98 615.94 536.98 620.41 536.98 C 620.41 537.84 620.42 539.56 620.42 540.41 C 617.31 540.45 614.20 540.47 611.10 540.48 C 611.07 542.30 611.05 544.13 611.04 545.97 C 613.83 545.98 616.61 546.00 619.41 546.03 C 619.42 546.88 619.43 548.60 619.44 549.45 C 616.65 549.48 613.86 549.49 611.09 549.49 C 611.07 551.17 611.06 552.86 611.06 554.55 C 614.17 554.54 617.28 554.55 620.40 554.59 C 620.39 555.43 620.38 557.13 620.37 557.97 C 615.92 558.01 611.47 558.02 607.03 558.02 C 607.00 551.00 607.01 543.99 607.01 536.99 Z" />
<path fill="#000000" opacity="1.00" d=" M 640.43 538.38 C 643.22 536.61 646.98 536.67 649.88 538.20 C 651.83 539.29 652.66 541.50 653.81 543.30 C 652.88 543.34 651.02 543.44 650.09 543.48 C 648.46 541.83 646.54 539.67 643.95 540.67 C 642.15 540.76 641.63 543.06 642.67 544.29 C 645.70 545.89 649.39 545.87 652.23 547.87 C 654.92 550.03 654.41 554.67 651.59 556.51 C 646.51 559.82 638.16 557.43 637.20 550.92 C 638.14 550.92 640.01 550.93 640.94 550.94 C 642.56 553.13 644.92 555.54 647.93 554.32 C 650.06 554.21 650.25 551.89 649.68 550.29 C 646.72 548.63 643.17 548.46 640.18 546.87 C 637.12 545.08 637.56 540.14 640.43 538.38 Z" />
</g>
</svg>
