<?xml version="1.0" encoding="UTF-8" ?>
<!DOCTYPE svg PUBLIC "-//W3C//DTD SVG 1.1//EN" "http://www.w3.org/Graphics/SVG/1.1/DTD/svg11.dtd">
<svg width="500pt" height="500pt" viewBox="0 0 500 500" version="1.1" xmlns="http://www.w3.org/2000/svg">
<g id="#ffffffff">
<path fill="#ffffff" opacity="1.00" d=" M 133.48 119.32 C 135.25 117.13 136.60 114.50 138.94 112.85 C 171.95 112.58 204.98 112.88 238.00 112.75 C 245.32 112.77 252.64 112.86 259.95 112.73 C 261.66 112.78 263.37 112.88 265.07 113.09 C 267.72 112.71 270.41 112.78 273.09 112.79 C 276.01 113.35 279.01 113.36 281.94 112.78 C 282.47 112.80 283.53 112.84 284.06 112.86 C 300.27 112.54 316.50 112.84 332.72 112.66 C 335.46 116.03 337.95 119.60 340.27 123.27 C 343.73 127.36 347.06 131.56 350.21 135.90 C 358.42 147.11 367.27 157.85 375.67 168.90 C 376.91 164.04 376.13 158.82 376.21 153.82 C 375.03 151.38 373.90 148.81 374.73 146.06 C 381.84 146.48 388.94 145.28 396.06 145.92 C 398.19 146.62 397.03 149.13 397.27 150.78 C 396.33 151.77 394.50 152.43 394.79 154.10 C 394.37 166.73 395.01 179.37 394.77 192.00 C 394.21 195.45 397.72 197.18 399.28 199.73 C 405.35 207.41 410.76 215.56 416.71 223.31 C 423.77 232.75 431.76 241.49 438.38 251.26 C 424.36 251.38 410.34 251.33 396.32 251.30 C 393.70 248.35 391.41 245.12 389.03 241.98 C 386.05 237.98 383.16 233.91 379.72 230.29 C 377.18 227.08 374.93 223.66 372.77 220.19 C 369.34 215.91 366.22 211.40 362.79 207.12 C 359.24 202.38 355.66 197.67 351.74 193.24 C 347.95 188.04 343.71 183.17 340.15 177.81 C 337.42 173.31 333.91 169.36 331.00 164.98 C 323.86 157.12 317.91 148.28 311.07 140.20 C 308.30 143.54 305.58 146.93 303.31 150.63 C 298.66 157.44 292.97 163.46 288.27 170.23 C 280.80 179.78 273.44 189.42 266.19 199.15 C 264.76 201.09 263.27 202.98 261.82 204.90 C 259.91 207.31 258.11 209.80 256.25 212.25 C 250.17 220.36 244.10 228.48 237.60 236.26 C 233.92 240.72 231.12 245.80 227.49 250.28 C 226.25 252.03 223.88 251.18 222.09 251.42 C 158.93 251.25 95.76 251.45 32.60 251.29 C 39.97 240.86 48.84 231.57 55.77 220.83 C 63.07 211.45 69.99 201.75 77.73 192.72 C 86.67 181.68 94.06 169.48 103.40 158.75 C 110.41 149.73 117.49 140.74 124.16 131.45 C 126.59 126.90 130.54 123.50 133.48 119.32 Z" />
<path fill="#ffffff" opacity="1.00" d=" M 295.60 196.16 C 300.25 196.42 304.90 195.98 309.56 196.14 C 309.58 200.84 309.50 205.53 309.53 210.22 C 304.89 210.27 300.26 210.28 295.63 210.26 C 295.46 205.56 295.68 200.86 295.60 196.16 Z" />
<path fill="#ffffff" opacity="1.00" d=" M 315.30 196.11 C 320.10 196.15 324.90 196.06 329.70 196.18 C 329.75 200.87 329.79 205.56 329.69 210.25 C 324.91 210.28 320.12 210.22 315.34 210.36 C 315.32 205.61 315.26 200.86 315.30 196.11 Z" />
<path fill="#ffffff" opacity="1.00" d=" M 295.66 215.71 C 300.30 215.68 304.94 215.72 309.58 215.69 C 309.54 220.59 309.42 225.48 309.53 230.38 C 304.88 230.43 300.23 230.39 295.59 230.41 C 295.54 225.51 295.51 220.60 295.66 215.71 Z" />
<path fill="#ffffff" opacity="1.00" d=" M 315.40 230.40 C 315.25 225.48 315.27 220.55 315.31 215.63 C 320.09 215.80 324.87 215.68 329.65 215.69 C 329.79 220.60 329.77 225.51 329.71 230.41 C 324.94 230.41 320.17 230.40 315.40 230.40 Z" />
<path fill="#ffffff" opacity="1.00" d=" M 420.57 268.54 C 424.37 264.17 430.56 262.83 436.10 263.71 C 439.27 264.30 442.97 264.69 444.99 267.53 C 441.49 267.83 438.47 265.57 435.01 265.52 C 430.70 264.95 426.10 265.94 422.82 268.88 C 420.91 271.65 421.48 275.85 424.42 277.67 C 430.35 281.51 438.31 280.57 443.94 285.06 C 446.69 287.43 446.35 291.47 445.72 294.69 C 443.53 299.47 437.93 301.19 433.06 301.23 C 427.94 300.99 422.86 299.88 418.15 297.85 C 418.19 297.27 418.29 296.11 418.33 295.53 C 423.44 298.11 429.18 299.76 434.96 299.35 C 438.47 299.09 442.02 297.21 443.65 294.01 C 444.58 291.36 444.25 287.87 441.75 286.20 C 435.97 282.07 427.94 283.32 422.32 278.87 C 419.08 276.63 418.63 271.77 420.57 268.54 Z" />
<path fill="#ffffff" opacity="1.00" d=" M 36.03 264.31 C 40.15 264.33 43.84 266.53 47.13 268.80 C 52.11 273.31 53.32 280.81 51.83 287.13 C 50.17 294.41 43.38 300.10 35.92 300.48 C 30.53 300.71 25.13 300.53 19.73 300.59 C 19.72 288.47 19.73 276.35 19.72 264.23 C 25.16 264.28 30.59 264.18 36.03 264.31 M 21.86 266.24 C 21.87 277.00 21.85 287.76 21.85 298.52 C 27.18 298.60 32.56 299.10 37.85 298.27 C 44.27 296.99 48.89 291.31 50.21 285.09 C 50.86 278.92 49.01 271.99 43.63 268.40 C 36.87 265.07 29.11 266.26 21.86 266.24 Z" />
<path fill="#ffffff" opacity="1.00" d=" M 64.06 263.85 C 69.73 263.96 75.42 263.63 81.07 264.02 C 84.61 264.23 88.34 265.79 90.03 269.08 C 91.68 272.85 90.85 277.30 88.67 280.68 C 86.94 282.63 84.35 283.44 82.00 284.36 C 82.18 284.77 82.55 285.58 82.74 285.99 C 85.55 290.92 89.69 295.34 90.78 301.08 C 85.98 296.28 83.42 289.75 79.39 284.34 C 75.02 284.28 70.66 284.24 66.30 284.36 C 65.58 289.99 67.27 295.97 65.05 301.34 C 63.45 299.19 63.96 296.50 63.91 294.01 C 64.03 283.96 63.75 273.90 64.06 263.85 M 66.34 265.76 C 66.06 271.34 66.13 276.93 66.18 282.52 C 71.79 282.38 77.52 283.17 83.05 282.06 C 88.86 280.75 91.49 273.03 87.62 268.50 C 81.33 264.20 73.45 266.10 66.34 265.76 Z" />
<path fill="#ffffff" opacity="1.00" d=" M 98.40 264.33 C 99.05 264.31 100.36 264.28 101.01 264.26 C 106.02 270.30 110.51 276.74 115.10 283.10 C 118.66 278.32 122.33 273.60 125.42 268.49 C 126.90 266.36 128.36 263.89 131.27 263.71 C 129.81 266.90 126.97 269.13 125.24 272.15 C 122.78 276.85 119.35 280.94 116.30 285.26 C 116.12 290.45 116.47 295.63 116.24 300.82 C 115.70 300.71 114.63 300.48 114.10 300.37 C 113.93 295.89 114.16 291.40 114.05 286.92 C 114.25 285.28 113.10 284.02 112.27 282.78 C 107.68 276.59 103.49 270.12 98.40 264.33 Z" />
<path fill="#ffffff" opacity="1.00" d=" M 160.30 264.23 C 168.86 264.20 177.42 264.27 185.99 264.23 C 185.94 264.70 185.86 265.65 185.82 266.12 C 177.82 266.25 169.82 265.90 161.83 266.26 C 161.89 271.26 161.58 276.29 162.15 281.27 C 167.71 281.55 173.37 280.72 178.86 281.74 C 178.47 282.06 177.69 282.70 177.30 283.02 C 172.14 283.21 166.98 282.94 161.83 283.17 C 161.38 289.26 162.81 295.62 160.99 301.51 C 159.79 298.81 160.30 295.83 160.26 292.97 C 160.33 283.39 160.25 273.81 160.30 264.23 Z" />
<path fill="#ffffff" opacity="1.00" d=" M 197.67 287.82 C 201.58 279.58 205.08 271.13 209.58 263.19 C 216.05 275.52 221.70 288.28 227.42 300.97 C 223.34 300.69 223.34 295.65 221.47 292.89 C 213.32 293.04 205.14 292.52 197.01 293.23 C 196.38 295.66 195.75 298.09 195.03 300.50 C 194.36 300.49 193.02 300.49 192.34 300.48 C 194.44 296.40 196.15 292.14 197.67 287.82 M 198.52 290.83 C 205.85 291.20 213.21 291.22 220.54 290.86 C 216.96 283.02 213.47 275.13 209.69 267.39 C 205.34 274.88 202.30 283.05 198.52 290.83 Z" />
<path fill="#ffffff" opacity="1.00" d=" M 237.73 272.62 C 241.01 267.01 247.77 264.67 253.88 263.78 C 254.70 263.80 256.34 263.82 257.16 263.84 C 260.03 264.31 262.87 264.88 265.64 265.81 C 265.67 266.35 265.73 267.45 265.77 267.99 C 261.73 267.12 257.77 265.16 253.55 265.82 C 250.42 266.41 247.29 267.21 244.37 268.51 C 235.73 274.28 234.73 288.58 242.98 295.12 C 249.96 300.84 260.39 300.45 267.72 295.57 C 267.63 296.35 267.55 297.14 267.47 297.93 C 262.87 300.65 257.47 301.63 252.17 301.14 C 247.43 300.22 242.58 298.42 239.44 294.56 C 234.29 288.59 233.85 279.36 237.73 272.62 Z" />
<path fill="#ffffff" opacity="1.00" d=" M 277.41 264.30 C 278.00 264.31 279.17 264.33 279.76 264.34 C 279.70 276.43 279.68 288.53 279.74 300.63 C 279.16 300.62 278.01 300.60 277.43 300.59 C 277.28 288.49 277.69 276.40 277.41 264.30 Z" />
<path fill="#ffffff" opacity="1.00" d=" M 293.07 264.20 C 293.63 264.24 294.73 264.30 295.28 264.34 C 295.36 275.74 295.04 287.16 295.44 298.56 C 303.10 298.84 310.78 298.47 318.44 298.73 C 318.69 299.17 319.20 300.07 319.45 300.52 C 310.65 300.71 301.85 300.57 293.06 300.60 C 293.05 288.47 292.99 276.34 293.07 264.20 Z" />
<path fill="#ffffff" opacity="1.00" d=" M 329.50 264.31 C 330.08 264.31 331.24 264.31 331.82 264.31 C 331.82 276.40 331.77 288.49 331.83 300.58 C 331.25 300.60 330.09 300.62 329.51 300.63 C 329.50 288.53 329.50 276.42 329.50 264.31 Z" />
<path fill="#ffffff" opacity="1.00" d=" M 340.34 264.70 C 350.43 263.67 360.65 264.50 370.80 264.22 C 370.80 264.71 370.79 265.68 370.79 266.17 C 366.30 266.10 361.82 266.08 357.34 266.16 C 357.24 277.65 357.32 289.15 357.29 300.64 C 356.48 300.62 355.67 300.59 354.87 300.57 C 354.86 289.13 354.89 277.69 354.85 266.24 C 350.07 265.47 344.52 267.53 340.34 264.70 Z" />
<path fill="#ffffff" opacity="1.00" d=" M 377.00 264.15 C 377.66 264.22 378.98 264.36 379.64 264.44 C 384.98 270.20 389.05 276.98 393.92 283.13 C 398.60 276.92 402.62 270.14 408.09 264.57 C 408.69 264.41 409.90 264.09 410.51 263.93 C 405.39 271.29 399.42 278.15 394.89 285.89 C 394.61 290.79 394.91 295.70 394.81 300.60 C 394.27 300.60 393.19 300.60 392.65 300.60 C 392.62 295.44 392.72 290.28 392.61 285.12 C 387.47 278.08 382.46 270.93 377.00 264.15 Z" />
<path fill="#ffffff" opacity="1.00" d=" M 56.87 322.62 C 55.66 321.12 57.12 319.33 58.83 319.63 C 176.11 319.72 293.39 319.56 410.68 319.71 C 410.66 320.86 410.63 322.01 410.59 323.17 C 375.73 323.14 340.86 323.13 306.04 322.95 C 298.02 322.84 290.00 322.75 281.99 323.12 C 249.66 323.19 217.34 323.14 185.01 323.12 C 182.33 323.12 179.66 323.13 176.99 323.12 C 174.32 323.12 171.66 323.12 169.00 323.12 C 166.00 323.11 163.00 323.11 160.00 323.12 C 142.34 322.83 124.66 323.33 106.99 323.08 C 100.66 322.57 94.33 323.34 88.00 323.11 C 80.68 322.74 73.36 322.91 66.04 322.89 C 62.99 322.84 59.82 323.69 56.87 322.62 Z" />
<path fill="#ffffff" opacity="1.00" d=" M 33.36 343.20 C 33.94 343.21 35.09 343.23 35.66 343.24 C 35.76 347.69 35.62 352.14 35.63 356.60 C 35.06 356.60 33.92 356.60 33.35 356.60 C 33.34 352.13 33.35 347.66 33.36 343.20 Z" />
<path fill="#ffffff" opacity="1.00" d=" M 55.88 343.26 C 57.16 343.26 58.44 343.26 59.73 343.27 C 59.76 347.70 59.81 352.13 59.73 356.57 C 59.16 356.58 58.02 356.59 57.45 356.60 C 57.40 352.80 57.75 348.95 57.03 345.19 C 55.50 349.18 55.61 353.83 53.03 357.38 C 51.69 353.42 51.04 349.25 49.42 345.39 C 49.06 348.97 49.52 352.57 49.34 356.17 C 48.81 356.38 47.76 356.80 47.24 357.01 C 46.86 352.43 47.10 347.84 47.13 343.26 C 48.43 343.27 49.72 343.30 51.01 343.34 C 51.72 346.59 52.47 349.83 53.30 353.05 C 54.15 349.79 55.09 346.54 55.88 343.26 Z" />
<path fill="#ffffff" opacity="1.00" d=" M 92.08 343.24 C 94.75 343.25 97.41 343.28 100.08 343.27 C 100.22 343.65 100.49 344.41 100.63 344.79 C 98.51 345.10 96.38 345.23 94.24 345.34 C 94.26 346.56 94.28 347.79 94.29 349.02 C 96.49 349.14 98.94 348.69 100.76 350.25 C 98.61 350.86 96.38 351.12 94.16 351.34 C 94.23 352.46 94.30 353.59 94.37 354.73 C 96.34 354.77 98.30 354.78 100.27 354.80 L 100.30 356.60 C 97.51 356.59 94.72 356.60 91.93 356.52 C 91.94 352.09 91.83 347.66 92.08 343.24 Z" />
<path fill="#ffffff" opacity="1.00" d=" M 112.32 343.54 C 115.02 343.31 118.23 342.62 120.58 344.36 C 122.52 346.50 121.09 349.30 119.60 351.20 C 120.34 353.07 121.03 354.96 121.61 356.90 C 118.38 357.16 118.60 353.26 117.32 351.30 C 116.35 351.35 115.38 351.40 114.42 351.46 C 114.36 353.18 114.30 354.90 114.23 356.64 C 113.56 356.50 112.89 356.36 112.23 356.23 C 112.19 352.00 111.90 347.76 112.32 343.54 M 114.39 345.14 C 114.42 346.61 114.47 348.09 114.53 349.57 C 115.91 349.52 117.28 349.47 118.66 349.40 C 118.81 348.75 119.11 347.44 119.26 346.78 C 118.60 344.58 116.10 345.42 114.39 345.14 Z" />
<path fill="#ffffff" opacity="1.00" d=" M 133.25 343.27 C 134.50 343.30 135.75 343.36 137.01 343.44 C 137.71 346.93 138.61 350.37 139.40 353.84 C 140.23 351.87 140.76 349.78 141.20 347.71 C 143.29 350.59 141.25 353.76 140.41 356.71 C 139.94 356.65 139.00 356.52 138.53 356.45 C 137.65 352.68 136.84 348.86 135.30 345.28 C 135.04 349.25 135.44 353.22 135.11 357.18 C 133.78 356.50 133.08 355.47 133.03 354.08 C 132.79 350.48 133.23 346.87 133.25 343.27 Z" />
<path fill="#ffffff" opacity="1.00" d=" M 142.53 343.28 C 143.77 343.28 145.01 343.28 146.25 343.29 C 146.22 347.71 146.29 352.13 146.27 356.55 C 145.69 356.56 144.54 356.59 143.96 356.60 C 143.92 352.69 144.04 348.79 143.88 344.89 C 143.65 345.88 143.19 347.84 142.96 348.82 C 142.44 348.21 141.92 347.61 141.40 347.02 C 141.68 346.08 142.25 344.21 142.53 343.28 Z" />
<path fill="#ffffff" opacity="1.00" d=" M 158.46 343.32 C 160.92 343.27 163.38 343.28 165.84 343.29 C 165.86 343.76 165.92 344.70 165.94 345.17 C 164.04 345.19 162.14 345.22 160.24 345.28 C 160.25 346.56 160.27 347.84 160.30 349.13 C 162.46 349.14 164.66 349.03 166.67 349.99 C 164.65 350.98 162.43 351.20 160.23 351.37 C 160.26 352.49 160.29 353.60 160.33 354.73 C 162.18 354.76 164.03 354.78 165.89 354.81 C 165.90 355.26 165.90 356.16 165.91 356.61 C 163.45 356.59 160.99 356.56 158.54 356.50 C 158.35 352.11 158.42 347.71 158.46 343.32 Z" />
<path fill="#ffffff" opacity="1.00" d=" M 181.51 343.23 C 182.13 343.26 183.38 343.34 184.00 343.38 C 185.46 347.96 187.29 352.43 188.41 357.11 C 186.87 356.58 185.77 355.55 185.11 354.02 C 183.66 353.95 182.21 353.88 180.77 353.95 C 179.49 354.99 178.48 356.30 177.26 357.40 C 177.73 352.45 179.99 347.91 181.51 343.23 M 182.76 346.00 C 182.02 347.74 181.34 349.50 180.88 351.34 C 181.28 353.11 183.47 351.99 184.71 352.31 C 184.09 350.19 183.42 348.10 182.76 346.00 Z" />
<path fill="#ffffff" opacity="1.00" d=" M 198.79 343.25 C 201.35 343.33 204.01 342.94 206.49 343.78 C 208.78 344.96 207.80 348.00 207.08 349.90 C 208.16 351.11 209.64 352.84 208.41 354.49 C 206.38 357.67 201.96 356.27 198.81 356.53 C 198.75 352.10 198.79 347.67 198.79 343.25 M 200.61 345.31 C 200.86 346.74 201.17 348.15 201.53 349.56 C 202.95 348.95 206.57 349.42 205.66 346.97 C 205.86 344.35 202.24 345.55 200.61 345.31 M 201.19 351.06 C 201.17 352.32 201.18 353.59 201.20 354.86 C 203.53 354.74 207.48 355.28 206.55 351.64 C 204.80 351.14 202.98 351.15 201.19 351.06 Z" />
<path fill="#ffffff" opacity="1.00" d=" M 233.18 343.25 C 233.76 343.25 234.90 343.26 235.47 343.26 C 235.56 347.06 235.57 350.85 235.63 354.65 C 237.35 354.66 239.07 354.69 240.80 354.71 C 240.83 355.19 240.90 356.13 240.93 356.61 C 238.36 356.60 235.79 356.59 233.22 356.59 C 233.13 352.14 233.17 347.70 233.18 343.25 Z" />
<path fill="#ffffff" opacity="1.00" d=" M 265.59 345.00 C 267.58 341.83 271.95 343.71 275.00 343.59 C 272.95 347.51 270.14 350.95 267.69 354.62 C 270.34 354.90 273.39 354.14 275.47 356.22 C 272.24 356.77 268.96 356.60 265.70 356.45 C 267.24 352.50 269.20 348.71 271.78 345.34 C 269.71 345.23 267.65 345.14 265.59 345.00 Z" />
<path fill="#ffffff" opacity="1.00" d=" M 289.86 342.86 C 290.60 343.13 291.33 343.43 292.05 343.77 C 293.80 347.85 294.95 352.17 296.47 356.35 L 294.85 356.80 C 294.19 353.21 290.56 353.89 287.86 354.10 C 287.69 354.71 287.35 355.92 287.18 356.52 C 286.63 356.53 285.53 356.55 284.98 356.57 C 286.50 351.96 287.99 347.34 289.86 342.86 M 288.77 352.29 C 290.11 352.28 291.46 352.26 292.81 352.24 C 292.18 350.11 291.48 348.01 290.81 345.89 C 290.00 347.98 289.33 350.12 288.77 352.29 Z" />
<path fill="#ffffff" opacity="1.00" d=" M 329.66 343.53 C 330.21 343.44 331.30 343.25 331.84 343.15 C 331.93 347.63 331.91 352.11 331.93 356.60 C 331.36 356.59 330.23 356.56 329.67 356.55 C 329.64 352.21 329.66 347.87 329.66 343.53 Z" />
<path fill="#ffffff" opacity="1.00" d=" M 388.36 343.48 C 391.07 343.11 393.83 343.28 396.56 343.28 C 396.56 343.76 396.54 344.71 396.54 345.19 C 394.53 345.20 392.53 345.22 390.53 345.26 C 390.55 346.27 390.57 348.29 390.59 349.30 C 392.37 349.75 397.05 347.65 395.68 351.06 C 393.97 351.16 392.26 351.17 390.55 351.21 C 390.53 352.35 390.51 353.49 390.51 354.64 C 392.64 354.83 394.91 354.48 396.87 355.51 C 396.75 355.75 396.50 356.22 396.38 356.45 C 393.69 356.75 390.97 356.54 388.27 356.54 C 388.20 352.19 388.09 347.82 388.36 343.48 Z" />
<path fill="#ffffff" opacity="1.00" d=" M 71.56 346.50 C 70.32 341.77 75.43 343.42 77.88 343.36 C 81.45 343.46 81.50 347.81 80.20 350.17 C 78.68 351.85 76.19 351.17 74.19 351.44 C 73.92 353.56 75.14 357.04 71.85 356.91 C 71.81 353.49 71.84 350.08 71.73 346.67 C 72.17 346.89 73.04 347.32 73.47 347.54 C 73.82 348.07 74.51 349.12 74.86 349.65 C 76.12 349.52 77.38 349.39 78.63 349.25 C 78.66 347.98 78.67 346.71 78.64 345.45 C 76.21 345.04 73.67 345.04 71.56 346.50 Z" />
<path fill="#ffffff" opacity="1.00" d=" M 220.22 343.72 C 220.74 343.50 221.78 343.06 222.30 342.83 C 222.61 347.42 222.39 352.02 222.45 356.61 C 221.87 356.60 220.72 356.58 220.15 356.58 C 220.19 352.29 220.06 348.00 220.22 343.72 Z" />
<path fill="#ffffff" opacity="1.00" d=" M 252.08 343.20 C 252.66 343.21 253.84 343.25 254.43 343.27 C 254.56 347.70 254.35 352.14 254.31 356.57 C 253.76 356.57 252.67 356.55 252.12 356.55 C 252.03 352.10 252.13 347.64 252.08 343.20 Z" />
<path fill="#ffffff" opacity="1.00" d=" M 308.13 344.68 C 311.55 342.36 316.96 343.03 318.11 347.53 C 316.15 347.10 314.54 345.93 312.75 345.14 C 310.95 344.97 309.76 346.40 308.56 347.47 C 308.55 348.98 308.56 350.50 308.59 352.02 C 308.98 352.61 309.77 353.80 310.16 354.39 C 311.37 354.53 312.58 354.65 313.80 354.72 C 314.90 353.24 316.35 352.42 318.15 352.28 C 317.07 357.33 309.52 358.01 307.20 353.66 C 305.82 351.70 306.16 349.23 306.60 347.03 C 306.98 346.44 307.75 345.27 308.13 344.68 Z" />
<path fill="#ffffff" opacity="1.00" d=" M 345.06 344.09 C 348.42 342.13 353.82 343.89 354.36 348.08 C 355.99 352.49 351.80 357.69 347.08 356.47 C 341.27 355.77 340.35 346.76 345.06 344.09 M 345.40 346.51 C 344.03 347.84 344.33 349.94 344.50 351.66 C 344.91 354.74 349.54 355.89 351.33 353.36 C 352.53 351.85 352.23 349.86 352.34 348.08 C 351.92 347.46 351.09 346.23 350.67 345.61 C 348.91 345.33 346.63 344.79 345.40 346.51 Z" />
<path fill="#ffffff" opacity="1.00" d=" M 366.10 343.25 C 366.76 343.28 368.08 343.34 368.74 343.38 C 370.58 346.62 372.42 349.86 374.35 353.06 C 375.17 349.74 372.95 345.20 376.04 342.80 C 376.10 347.66 376.49 352.59 375.48 357.40 C 372.13 354.61 370.86 350.23 368.59 346.65 C 368.29 349.96 368.25 353.30 368.27 356.63 C 367.72 356.61 366.64 356.58 366.10 356.56 C 366.11 352.12 366.10 347.69 366.10 343.25 Z" />
<path fill="#ffffff" opacity="1.00" d=" M 408.42 348.10 C 407.86 345.51 410.23 342.77 412.91 343.32 C 415.37 343.34 416.84 345.49 417.82 347.46 C 416.08 347.33 414.65 346.61 413.53 345.32 C 412.49 345.34 411.45 345.37 410.44 345.59 C 409.30 349.76 414.64 348.27 416.62 350.31 C 418.77 351.61 418.01 354.94 415.93 355.90 C 412.77 357.87 407.84 355.67 408.16 351.69 C 410.39 352.98 412.33 356.02 415.21 354.16 C 415.31 353.58 415.50 352.42 415.59 351.84 C 413.20 350.62 410.15 350.39 408.42 348.10 Z" />
</g>
</svg>
