<?xml version="1.0" encoding="UTF-8"?>
<svg id="Capa_1" xmlns="http://www.w3.org/2000/svg" version="1.1" viewBox="0 0 1920 1080">
  <!-- Generator: Adobe Illustrator 29.3.0, SVG Export Plug-In . SVG Version: 2.1.0 Build 146)  -->
  <defs>
    <style>
      .st0 {
        fill: none;
        stroke: #dddbdb;
        stroke-miterlimit: 10;
        stroke-width: 4px;
      }

      .st1 {
        isolation: isolate;
      }

      .st2 {
        fill: #fff;
      }

      .st3 {
        fill: #f9f9f9;
      }

      .st4 {
        fill: #fcfcfc;
      }

      .st5 {
        display: none;
      }
    </style>
  </defs>
  <g id="Capa_2" class="st5">
    <rect y="0" width="1920" height="1080"/>
  </g>
  <polygon class="st2" points="136.6 606.5 570.5 39 1372.9 39 1547.5 268.8 1547.5 200 1539.8 200 1539.8 173.8 1634.8 173.8 1634.8 198.3 1627.1 198.3 1627.1 374.1 1805.2 606.5 1629.9 606.5 1283.1 153.3 936.4 607.8 136.6 606.5"/>
  <rect class="st2" x="1213.7" y="376.7" width="64.2" height="64.2"/>
  <rect class="st2" x="1295.9" y="376.7" width="64.2" height="64.2"/>
  <rect class="st2" x="1213.7" y="458.8" width="64.2" height="64.2"/>
  <rect class="st2" x="1295.9" y="458.8" width="64.2" height="64.2"/>
  <line class="st0" x1="494.8" y1="155.8" x2="879.9" y2="546.1"/>
  <line class="st0" x1="1461.5" y1="154.6" x2="1363.9" y2="254.7"/>
  <line class="st0" x1="1559.1" y1="175.1" x2="1623.3" y2="241.9"/>
  <rect class="st3" x="136.6" y="881.2" width="1674.2" height="23.1" rx="3.5" ry="3.5"/>
  <g class="st1">
    <path class="st4" d="M137.1,823.3v-165.8h48.6c51.1,0,85.9,33.6,85.9,82.9s-34.3,82.9-84.3,82.9h-50.3ZM146.2,666.2v148.3h41.1c44.6,0,75-30.2,75-74.2s-31.2-74.2-76.6-74.2h-39.5Z"/>
    <path class="st4" d="M373.8,657.4c34.7,0,55.7,18,55.7,47.2s-15.6,41.9-43.2,46.3l43.8,72.3h-9.9l-43.4-71.4h-47v71.4h-9.1v-165.8h53.1ZM329.8,666.2v76.9h43.4c29.8,0,46.8-14.5,46.8-38.5s-17-38.5-46.6-38.5h-43.6Z"/>
    <path class="st4" d="M461.2,657.4l59.8,88.7,59.6-88.7h10.3l-65.5,98.6v67.3h-8.9v-67.3l-65.5-98.6h10.1Z"/>
    <path class="st4" d="M694.7,666.2v68.9h74.2v8.8h-74.2v79.5h-9.1v-165.8h97.1v8.8h-88Z"/>
    <path class="st4" d="M864.7,654.7h.4l77.2,168.6h-9.3l-21.5-45.4h-93.6l-21.1,45.4h-9.5l77.4-168.6ZM908.3,769.1c-10.1-21.2-28.4-60.1-43.4-95.1-15,35-33.2,73.9-43.4,95.1h86.7Z"/>
    <path class="st4" d="M1101.6,677.9c-17-8.1-39.1-13.6-54.5-13.6-46.8,0-78.8,30.9-78.8,76s32,76,78.8,76,38.5-5.5,55.7-13.4v10.4c-15.8,7.6-38.5,12.7-55.7,12.7-52.5,0-88.4-34.8-88.4-85.7s35.9-85.7,88.4-85.7,38.7,5.3,54.5,12.9v10.4Z"/>
    <path class="st4" d="M1148.2,823.3v-165.8h9.1v165.8h-9.1Z"/>
    <path class="st4" d="M1219.8,823.3v-165.8h9.1v157.1h80.9v8.8h-90Z"/>
    <path class="st4" d="M1349.9,823.3v-165.8h9.1v165.8h-9.1Z"/>
    <path class="st4" d="M1463.4,666.2v157.1h-8.9v-157.1h-54.9v-8.8h119v8.8h-55.1Z"/>
    <path class="st4" d="M1550.3,657.4l59.8,88.7,59.6-88.7h10.3l-65.5,98.6v67.3h-8.9v-67.3l-65.5-98.6h10.1Z"/>
    <path class="st4" d="M1700.7,815.9v-10.6c15,6.9,32.8,11.1,47.8,11.1,27.6,0,44-11.5,44-30.6s-8.9-29.5-42.8-41c-37.5-12.7-48.8-27.4-48.8-49.3s19.7-40.8,52.3-40.8,28.6,3.2,40.1,8.8v10.4c-13.8-6-29-9.4-40.5-9.4-26.5,0-42.4,11.5-42.4,30.6s7.9,28.8,42.6,40.5c37.5,12.7,49,26.5,49,49.7s-20.1,40.8-53.7,40.8-34-3.7-47.6-10.1Z"/>
  </g>
  <g class="st1">
    <path class="st4" d="M138.3,1011.1v-72.3h9.6v72.3h-9.6Z"/>
    <path class="st4" d="M188.7,1011.1v-72.3h14.4l17.1,51.2c1.6,4.8,2.7,8.3,3.5,10.7.8-2.6,2.1-6.5,3.8-11.6l17.3-50.3h12.9v72.3h-9.2v-60.5l-21,60.5h-8.6l-20.9-61.6v61.6h-9.2Z"/>
    <path class="st4" d="M297.4,1011.1v-72.3h27.3c4.8,0,8.5.2,11,.7,3.6.6,6.5,1.7,8.9,3.4,2.4,1.7,4.3,4,5.8,7,1.5,3,2.2,6.3,2.2,9.9,0,6.2-2,11.4-5.9,15.6s-11,6.4-21.2,6.4h-18.6v29.4h-9.6ZM306.9,973.2h18.7c6.2,0,10.6-1.2,13.2-3.5,2.6-2.3,3.9-5.5,3.9-9.7s-.8-5.6-2.3-7.8c-1.5-2.2-3.5-3.6-6-4.3-1.6-.4-4.6-.6-8.9-.6h-18.5v25.9Z"/>
    <path class="st4" d="M389.2,1011.1v-72.3h52.3v8.5h-42.7v22.2h40v8.5h-40v24.6h44.4v8.5h-54Z"/>
    <path class="st4" d="M480.8,1011.1v-72.3h32.1c6.4,0,11.3.6,14.7,1.9,3.4,1.3,6,3.6,8,6.9s3,6.9,3,10.9-1.7,9.5-5,13c-3.3,3.5-8.5,5.8-15.4,6.7,2.5,1.2,4.5,2.4,5.8,3.6,2.8,2.6,5.4,5.8,7.9,9.6l12.6,19.7h-12l-9.6-15c-2.8-4.3-5.1-7.7-6.9-10-1.8-2.3-3.4-3.9-4.9-4.8-1.4-.9-2.9-1.6-4.4-1.9-1.1-.2-2.9-.3-5.3-.3h-11.1v32.1h-9.6ZM490.4,970.7h20.6c4.4,0,7.8-.5,10.3-1.4,2.5-.9,4.3-2.4,5.6-4.3,1.3-2,1.9-4.2,1.9-6.5,0-3.4-1.2-6.2-3.7-8.4-2.5-2.2-6.4-3.3-11.8-3.3h-22.9v23.9Z"/>
    <path class="st4" d="M577.6,1011.1v-72.3h14.4l17.1,51.2c1.6,4.8,2.7,8.3,3.5,10.7.8-2.6,2.1-6.5,3.8-11.6l17.3-50.3h12.9v72.3h-9.2v-60.5l-21,60.5h-8.6l-20.9-61.6v61.6h-9.2Z"/>
    <path class="st4" d="M686.5,1011.1v-72.3h52.3v8.5h-42.7v22.2h40v8.5h-40v24.6h44.4v8.5h-54Z"/>
    <path class="st4" d="M770,1011.1l27.8-72.3h10.3l29.6,72.3h-10.9l-8.4-21.9h-30.2l-7.9,21.9h-10.2ZM790.9,981.4h24.5l-7.5-20c-2.3-6.1-4-11.1-5.1-15-.9,4.6-2.2,9.2-3.9,13.8l-7.9,21.2Z"/>
    <path class="st4" d="M869.2,1011.1v-72.3h27.1c5.5,0,10,.7,13.3,2.2,3.3,1.5,6,3.7,7.8,6.8,1.9,3,2.8,6.2,2.8,9.5s-.8,6-2.5,8.7c-1.7,2.7-4.2,4.9-7.6,6.6,4.4,1.3,7.7,3.5,10.1,6.6s3.5,6.7,3.5,11-.7,6.5-2.1,9.4c-1.4,2.9-3.2,5.2-5.3,6.7-2.1,1.6-4.7,2.8-7.9,3.6-3.2.8-7.1,1.2-11.7,1.2h-27.6ZM878.8,969.2h15.6c4.2,0,7.3-.3,9.1-.8,2.4-.7,4.3-1.9,5.5-3.6,1.2-1.7,1.8-3.8,1.8-6.3s-.6-4.5-1.7-6.3-2.8-3.1-4.9-3.8c-2.1-.7-5.8-1-11-1h-14.5v21.9ZM878.8,1002.6h18c3.1,0,5.3-.1,6.5-.3,2.2-.4,4-1.1,5.5-2,1.5-.9,2.7-2.3,3.7-4,1-1.8,1.4-3.8,1.4-6.1s-.7-5-2.1-7c-1.4-2-3.3-3.4-5.7-4.2-2.5-.8-6-1.2-10.6-1.2h-16.7v24.9Z"/>
    <path class="st4" d="M962.8,1011.1v-72.3h9.6v72.3h-9.6Z"/>
    <path class="st4" d="M1013.1,1011.1v-72.3h9.6v63.8h35.6v8.5h-45.2Z"/>
    <path class="st4" d="M1095.6,1011.1v-72.3h9.6v72.3h-9.6Z"/>
    <path class="st4" d="M1140.5,1011.1v-8.9l37.1-46.3c2.6-3.3,5.1-6.2,7.5-8.6h-40.4v-8.5h51.8v8.5l-40.6,50.2-4.4,5.1h46.2v8.5h-57.2Z"/>
    <path class="st4" d="M1224.3,1011.1l27.8-72.3h10.3l29.6,72.3h-10.9l-8.4-21.9h-30.2l-7.9,21.9h-10.2ZM1245.2,981.4h24.5l-7.5-20c-2.3-6.1-4-11.1-5.1-15-.9,4.6-2.2,9.2-3.9,13.8l-7.9,21.2Z"/>
    <path class="st4" d="M1375.5,985.8l9.6,2.4c-2,7.9-5.6,13.9-10.8,18-5.2,4.1-11.6,6.2-19.1,6.2s-14.1-1.6-19-4.8c-4.9-3.2-8.6-7.8-11.2-13.8-2.5-6-3.8-12.5-3.8-19.4s1.4-14.1,4.3-19.7c2.9-5.6,7-9.9,12.3-12.8,5.3-2.9,11.2-4.4,17.5-4.4s13.3,1.8,18.3,5.5,8.4,8.9,10.3,15.5l-9.4,2.2c-1.7-5.3-4.1-9.1-7.3-11.5-3.2-2.4-7.2-3.6-12-3.6s-10.2,1.3-13.9,4c-3.7,2.7-6.4,6.2-7.9,10.7-1.5,4.5-2.3,9.1-2.3,13.9s.9,11.5,2.7,16.1c1.8,4.6,4.6,8,8.4,10.3,3.8,2.3,7.9,3.4,12.3,3.4s9.9-1.5,13.6-4.6c3.7-3.1,6.2-7.7,7.5-13.8Z"/>
    <path class="st4" d="M1422.8,1011.1v-72.3h9.6v72.3h-9.6Z"/>
    <path class="st4" d="M1470.5,975.9c0-12,3.2-21.4,9.7-28.2s14.8-10.2,25-10.2,12.7,1.6,18.1,4.8c5.4,3.2,9.4,7.6,12.3,13.3,2.8,5.7,4.2,12.2,4.2,19.4s-1.5,13.9-4.4,19.7c-3,5.8-7.2,10.2-12.6,13.1-5.4,3-11.3,4.5-17.6,4.5s-12.9-1.6-18.3-4.9c-5.4-3.3-9.4-7.8-12.2-13.5-2.8-5.7-4.1-11.7-4.1-18.1ZM1480.4,976c0,8.7,2.3,15.6,7,20.6,4.7,5,10.6,7.5,17.6,7.5s13.1-2.5,17.8-7.6c4.7-5.1,7-12.3,7-21.6s-1-11-3-15.4c-2-4.4-4.9-7.8-8.7-10.2-3.8-2.4-8.1-3.6-12.9-3.6-6.8,0-12.6,2.3-17.5,7-4.9,4.7-7.3,12.4-7.3,23.3Z"/>
    <path class="st4" d="M1576.2,1011.1v-72.3h9.8l38,56.8v-56.8h9.2v72.3h-9.8l-38-56.8v56.8h-9.2Z"/>
    <path class="st4" d="M1673.7,1011.1v-72.3h52.3v8.5h-42.7v22.2h40v8.5h-40v24.6h44.4v8.5h-54Z"/>
    <path class="st4" d="M1761.9,987.9l9-.8c.4,3.6,1.4,6.6,3,8.9,1.6,2.3,4,4.2,7.3,5.6s7,2.1,11.1,2.1,6.9-.5,9.7-1.6c2.8-1.1,4.9-2.6,6.2-4.5,1.4-1.9,2-4,2-6.2s-.7-4.3-2-5.9c-1.3-1.7-3.5-3.1-6.5-4.3-1.9-.8-6.2-1.9-12.9-3.5-6.6-1.6-11.3-3.1-14-4.5-3.5-1.8-6-4.1-7.7-6.7-1.7-2.7-2.5-5.7-2.5-9s1-7.1,3.1-10.2c2.1-3.2,5.1-5.6,9.1-7.2s8.4-2.5,13.3-2.5,10.1.9,14.2,2.6,7.2,4.3,9.4,7.6c2.2,3.4,3.4,7.2,3.6,11.4l-9.2.7c-.5-4.6-2.2-8-5-10.4s-7-3.5-12.6-3.5-10,1.1-12.7,3.2-4,4.7-4,7.7.9,4.7,2.8,6.4c1.8,1.7,6.7,3.4,14.4,5.2,7.8,1.8,13.1,3.3,16,4.6,4.2,1.9,7.3,4.4,9.3,7.4,2,3,3,6.4,3,10.3s-1.1,7.5-3.3,10.9c-2.2,3.4-5.4,6.1-9.5,7.9-4.1,1.9-8.8,2.8-13.9,2.8s-12-1-16.5-2.9-7.9-4.8-10.4-8.6c-2.5-3.8-3.8-8.2-4-13Z"/>
  </g>
</svg>